<?xml version="1.0" encoding="UTF-8" standalone="no"?>
<!-- Created with Inkscape (http://www.inkscape.org/) -->

<svg
   xmlns:dc="http://purl.org/dc/elements/1.1/"
   xmlns:cc="http://creativecommons.org/ns#"
   xmlns:rdf="http://www.w3.org/1999/02/22-rdf-syntax-ns#"
   xmlns:svg="http://www.w3.org/2000/svg"
   xmlns="http://www.w3.org/2000/svg"
   xmlns:sodipodi="http://sodipodi.sourceforge.net/DTD/sodipodi-0.dtd"
   xmlns:inkscape="http://www.inkscape.org/namespaces/inkscape"
   width="210mm"
   height="297mm"
   viewBox="0 0 210 297"
   version="1.1"
   id="svg8"
   sodipodi:docname="gpslayout.svg"
   inkscape:version="0.92.1 r15371">
  <defs
     id="defs2" />
  <sodipodi:namedview
     id="base"
     pagecolor="#ffffff"
     bordercolor="#666666"
     borderopacity="1.0"
     inkscape:pageopacity="0.0"
     inkscape:pageshadow="2"
     inkscape:zoom="0.22627418"
     inkscape:cx="1789.5668"
     inkscape:cy="1247.5668"
     inkscape:document-units="mm"
     inkscape:current-layer="g4294"
     showgrid="false"
     inkscape:window-width="1214"
     inkscape:window-height="777"
     inkscape:window-x="58"
     inkscape:window-y="-8"
     inkscape:window-maximized="1" />
  <metadata
     id="metadata5">
    <rdf:RDF>
      <cc:Work
         rdf:about="">
        <dc:format>image/svg+xml</dc:format>
        <dc:type
           rdf:resource="http://purl.org/dc/dcmitype/StillImage" />
        <dc:title />
      </cc:Work>
    </rdf:RDF>
  </metadata>
  <g
     inkscape:label="Camada 1"
     inkscape:groupmode="layer"
     id="layer1">
    <g
       id="g4294"
       transform="translate(-76.200042,-219.90654)">
      <path
         style="fill:#e6e6e6;stroke:none;stroke-width:0.26458332px;stroke-linecap:butt;stroke-linejoin:miter;stroke-opacity:1"
         d="M 946.11468,216.8988 V 320.05676 H -23.561097 l -3.507913,-180.33204 161.34291,-0.54239 77.50856,127.85832 502.7571,1.29936 92.95968,-51.57924 z"
         id="path166"
         inkscape:connector-curvature="0"
         sodipodi:nodetypes="ccccccccc" />
      <rect
         style="fill:none;stroke-width:0.24431066"
         id="rect150"
         width="969.67578"
         height="103.15794"
         x="-23.561098"
         y="216.8988" />
      <text
         xml:space="preserve"
         style="font-style:normal;font-weight:normal;font-size:35.27777778px;line-height:1.25;font-family:sans-serif;text-align:center;letter-spacing:0px;word-spacing:0px;text-anchor:middle;fill:#666666;fill-opacity:1;stroke:none;stroke-width:0.92684472;"
         x="77.272346"
         y="102.98373"
         id="waypoint"><tspan
           sodipodi:role="line"
           id="tspan4416"
           x="77.272346"
           y="102.98373"
           style="text-align:center;text-anchor:middle;stroke-width:0.92684472;fill:#666666;font-size:35.27777778px;">WAYPOINT</tspan></text>
      <text
         xml:space="preserve"
         style="font-style:normal;font-weight:normal;font-size:35.27777778px;line-height:1.25;font-family:sans-serif;text-align:center;letter-spacing:0px;word-spacing:0px;text-anchor:middle;fill:#666666;fill-opacity:1;stroke:none;stroke-width:0.92684472;"
         x="76.724861"
         y="135.81979"
         id="distance"><tspan
           sodipodi:role="line"
           id="tspan4428"
           x="76.724861"
           y="135.81979"
           style="text-align:center;text-anchor:middle;stroke-width:0.92684472;fill:#666666;font-size:35.27777778px;">9999 NM</tspan></text>
      <text
         id="hdg"
         y="262.4418"
         x="842.95776"
         style="font-style:normal;font-variant:normal;font-weight:normal;font-stretch:normal;font-size:35.27777778px;line-height:1.25;font-family:SansBetween;-inkscape-font-specification:SansBetween;text-align:center;letter-spacing:0px;word-spacing:0px;text-anchor:middle;fill:#666666;fill-opacity:1;stroke:none;stroke-width:0.92684472;"
         xml:space="preserve"
         inkscape:label="#hdg"><tspan
           style="font-style:normal;font-variant:normal;font-weight:normal;font-stretch:normal;font-family:SansBetween;-inkscape-font-specification:SansBetween;text-align:center;text-anchor:middle;stroke-width:0.92684472;fill:#666666;font-size:35.27777778px;"
           y="262.4418"
           x="842.95776"
           id="tspan156"
           sodipodi:role="line">68</tspan></text>
      <text
         xml:space="preserve"
         style="font-style:normal;font-weight:normal;font-size:35.27777863px;line-height:1.25;font-family:sans-serif;text-align:center;letter-spacing:0px;word-spacing:0px;text-anchor:middle;fill:#666666;fill-opacity:1;stroke:none;stroke-width:0.92684472"
         x="843.78925"
         y="304.77515"
         id="text162"><tspan
           sodipodi:role="line"
           id="tspan160"
           x="843.78925"
           y="304.77515"
           style="font-size:35.27777863px;text-align:center;text-anchor:middle;fill:#666666;stroke-width:0.92684472">THDG</tspan></text>
      <text
         id="coords"
         y="307.61938"
         x="461.66522"
         style="font-style:normal;font-weight:normal;font-size:35.27777778px;line-height:1.25;font-family:sans-serif;text-align:center;letter-spacing:0px;word-spacing:0px;text-anchor:middle;fill:#666666;fill-opacity:1;stroke:none;stroke-width:0.92684472;"
         xml:space="preserve"><tspan
           style="text-align:center;text-anchor:middle;fill:#666666;stroke-width:0.92684472;font-size:35.27777778px;"
           y="307.61938"
           x="461.66522"
           id="tspan4644"
           sodipodi:role="line">50*16'44.4&quot;S 72*02'07.5&quot;W</tspan></text>
      <path
         style="fill:#ff6600;stroke:none;stroke-width:0.03527778"
         id="path4110"
         d="m 55.350833,146.18754 c -28.081113,3.66889 -52.0700001,21.90751 -63.1472205,47.94251 -4.2333345,9.98361 -6.1736135,19.86139 -6.1736135,31.25611 0,11.39472 1.940279,21.2725 6.1736135,31.25611 11.1830544,26.28195 35.2072185,44.41473 63.6763865,47.97778 7.831667,0.9525 18.838335,0.52917 26.634724,-1.09361 25.117717,-5.22111 46.848827,-23.1775 56.832447,-46.95472 4.23333,-10.08945 6.13833,-19.82611 6.13833,-31.18556 0,-16.54528 -4.37444,-31.115 -13.40556,-44.59111 -12.91166,-19.22639 -33.266931,-31.75 -56.444384,-34.64278 -4.938889,-0.59973 -15.451668,-0.59973 -20.284723,0.0353 z m 16.792223,1.41112 c 14.358056,0.81139 30.444664,7.23194 42.650774,17.00389 7.69056,6.17361 15.41639,15.5575 20.07306,24.4475 6.6675,12.77055 9.63083,26.42305 8.81944,41.02806 -2.18722,39.15833 -34.07833,71.04944 -73.236608,73.23667 -14.605001,0.81139 -28.257501,-2.15195 -41.028058,-8.81945 -13.723056,-7.23194 -25.5411094,-19.05 -32.7730512,-32.77306 -6.6675008,-12.77055 -9.6308358,-26.42305 -8.8194468,-41.02805 1.693335,-30.12723 21.3077756,-57.04417 49.706388,-68.1214 4.586111,-1.76389 10.583334,-3.42194 15.522223,-4.26861 3.704167,-0.635 11.183056,-1.19944 13.934723,-1.02305 0.987778,0.0705 3.280833,0.21166 5.150556,0.3175 z"
         inkscape:connector-curvature="0" />
      <path
         style="fill:#ff6600;stroke:none;stroke-width:0.03527778"
         id="arrow"
         d="m 64.734722,180.93616 c -0.635,1.76389 -1.023056,2.8575 -1.799167,5.64444 -0.987778,3.4925 -3.069167,10.33639 -3.704167,12.34723 -0.811389,2.39889 -0.811389,2.39889 1.728612,2.2225 l 2.257777,-0.21167 -0.141111,11.25361 c -0.03528,6.20889 -0.141111,21.80167 -0.141111,34.67806 -0.03528,19.15583 0.03528,23.45972 0.423334,23.70667 0.635,0.42333 3.880555,0.24694 3.986389,-0.21167 0.105833,-0.28222 0.458611,-46.60195 0.529166,-66.60445 v -2.71639 h 2.469445 c 1.375833,0 2.469445,-0.10583 2.469445,-0.28222 0,-0.14111 -0.458612,-1.5875 -1.023056,-3.24556 -0.529167,-1.65805 -1.411111,-4.26861 -1.905,-5.82083 -2.469445,-7.65528 -4.056945,-11.81806 -4.515556,-11.81806 -0.105833,0 -0.423333,0.45862 -0.635,1.05834 z"
         inkscape:connector-curvature="0"
         inkscape:label="#arrow" />
      <path
         style="fill:#000000;stroke:none;stroke-width:0.03527778"
         id="path4125"
         d="m 64.911109,154.47781 v 5.29166 h 0.881945 0.881944 v -5.29166 -5.29167 h -0.881944 -0.881945 z"
         inkscape:connector-curvature="0" />
      <path
         style="fill:#000000;stroke:none;stroke-width:0.03527778"
         id="path4127"
         d="m 45.261386,151.86725 c -0.282223,0.14111 -0.141111,1.09361 0.458611,3.42194 1.763889,6.52639 1.905,6.94973 2.469444,6.94973 0.952501,0 0.952501,-1.05834 0,-4.69195 -1.658055,-6.20889 -1.622777,-6.17361 -2.928055,-5.67972 z"
         inkscape:connector-curvature="0" />
      <path
         style="fill:#000000;stroke:none;stroke-width:0.03527778"
         id="path4129"
         d="m 84.349166,152.78447 c -1.093611,3.52778 -2.2225,8.43139 -2.046111,8.89 0.458611,1.16417 1.27,0.56445 1.799167,-1.30528 2.081389,-7.44361 2.293055,-8.29027 1.728611,-8.50194 -0.917223,-0.35278 -1.093611,-0.24694 -1.481667,0.91722 z"
         inkscape:connector-curvature="0" />
      <path
         style="fill:#000000;stroke:none;stroke-width:0.03527778"
         id="path4131"
         d="m 27.163885,159.59308 c -0.352778,0.42334 0.03528,1.30528 2.116666,4.93889 1.834445,3.21028 2.681112,4.40973 3.069167,4.26861 0.282223,-0.10583 0.599723,-0.21166 0.670278,-0.21166 0.458611,0 -0.105833,-1.27 -2.363611,-5.15056 -1.375834,-2.39889 -2.645834,-4.37444 -2.786945,-4.37444 -0.141111,0 -0.458611,0.24694 -0.705555,0.52916 z"
         inkscape:connector-curvature="0" />
      <path
         style="fill:#000000;stroke:none;stroke-width:0.03527778"
         id="path4133"
         d="m 100.57688,163.43836 c -1.375824,2.39889 -2.504708,4.51556 -2.504708,4.69195 0,0.3175 0.776107,0.81139 1.234714,0.81139 0.0706,0 1.269994,-1.97556 2.645834,-4.40973 2.08139,-3.63361 2.46944,-4.51555 2.11667,-4.93889 -0.24695,-0.28222 -0.56445,-0.52916 -0.70556,-0.52916 -0.14111,0 -1.41111,1.97555 -2.78695,4.37444 z"
         inkscape:connector-curvature="0" />
      <path
         style="fill:#000000;stroke:none;stroke-width:0.03527778"
         id="path4135"
         d="m 60.395553,163.72058 c -0.3175,0.3175 -0.423333,2.39889 -0.423333,7.23195 v 6.80861 h 1.058333 1.058334 l 0.07055,-5.67972 0.105834,-5.64445 2.998611,5.57389 c 2.998611,5.57389 2.998611,5.57389 4.233334,5.57389 h 1.234722 v -7.05555 -7.05556 h -0.881945 -0.881944 l -0.105833,5.46806 -0.105834,5.46805 -2.54,-4.83305 c -1.411111,-2.64584 -2.8575,-5.15056 -3.210278,-5.53862 -0.740833,-0.81139 -1.975556,-0.9525 -2.610556,-0.3175 z"
         inkscape:connector-curvature="0" />
      <path
         style="fill:#000000;stroke:none;stroke-width:0.03527778"
         id="path4137"
         d="m 11.535828,171.69336 c -0.564444,0.59972 -0.388056,0.81139 3.069167,4.26861 2.575278,2.57528 3.845278,3.59834 4.233334,3.45723 0.3175,-0.14112 0.564444,-0.42334 0.564444,-0.67028 0,-0.28222 -1.622778,-2.11667 -3.633611,-4.09222 -3.492501,-3.45723 -3.668889,-3.59834 -4.233334,-2.96334 z"
         inkscape:connector-curvature="0" />
      <path
         style="fill:#000000;stroke:none;stroke-width:0.03527778"
         id="path4139"
         d="m 115.39355,174.72725 c -2.57528,2.57528 -3.59833,3.84528 -3.45722,4.23333 0.14111,0.3175 0.42333,0.56445 0.67028,0.56445 0.28222,0 2.11666,-1.62278 4.09222,-3.63361 3.45722,-3.4925 3.59833,-3.66889 2.96333,-4.23334 -0.59972,-0.56444 -0.81139,-0.38805 -4.26861,3.06917 z"
         inkscape:connector-curvature="0" />
      <path
         style="fill:#000000;stroke:none;stroke-width:0.03527778"
         id="path4141"
         d="m 16.580551,184.78142 c 0,3.24555 0.105833,3.91583 0.529166,3.91583 0.423334,0 0.529167,-0.56444 0.529167,-3.10444 v -3.06917 l 1.693333,3.10445 c 1.305278,2.46944 1.799167,3.06916 2.363612,2.99861 0.635,-0.10584 0.705555,-0.42334 0.811389,-3.91584 0.105833,-3.56305 0.07055,-3.77472 -0.599723,-3.77472 -0.635,0 -0.705555,0.28222 -0.811389,2.71639 l -0.105833,2.71639 -1.411111,-2.64583 c -1.023056,-1.90501 -1.622778,-2.64584 -2.2225,-2.71639 -0.776111,-0.10584 -0.776111,-0.0706 -0.776111,3.77472 z"
         inkscape:connector-curvature="0" />
      <path
         style="fill:#000000;stroke:none;stroke-width:0.03527778"
         id="path4143"
         d="m 23.74194,181.35947 c 0.07056,0.24695 0.599722,2.01084 1.128889,3.88056 0.846667,3.03389 1.058333,3.45722 1.763889,3.45722 0.670278,0 0.846667,-0.35278 1.411111,-2.89278 l 0.670278,-2.8575 0.423333,1.37584 c 0.246945,0.74083 0.635,2.04611 0.846667,2.89278 0.3175,1.27 0.529167,1.51694 1.164167,1.41111 0.635,-0.0706 0.917222,-0.635 1.728611,-3.28084 1.093611,-3.66889 1.164167,-4.40972 0.493889,-4.40972 -0.3175,0 -0.740833,1.02306 -1.234722,2.89278 -0.423334,1.62278 -0.811389,3.06917 -0.881945,3.24555 -0.03528,0.17639 -0.458611,-1.05833 -0.917222,-2.75166 -0.740834,-2.75167 -1.411111,-3.88056 -1.975556,-3.28084 -0.105833,0.10584 -0.564444,1.5875 -0.987778,3.31612 l -0.776111,3.10444 -0.811389,-3.28083 c -0.705555,-2.75167 -0.917222,-3.24556 -1.516944,-3.24556 -0.423334,0 -0.635,0.17639 -0.529167,0.42333 z"
         inkscape:connector-curvature="0" />
      <path
         style="fill:#000000;stroke:none;stroke-width:0.03527778"
         id="path4145"
         d="m 100.89438,184.78142 c 0,3.24555 0.10584,3.91583 0.52917,3.91583 0.42333,0 0.52917,-0.56444 0.52917,-3.10444 v -3.06917 l 1.69333,3.10445 c 1.30528,2.46944 1.79917,3.06916 2.36361,2.99861 0.635,-0.10584 0.70556,-0.42334 0.81139,-3.91584 0.10584,-3.56305 0.0706,-3.77472 -0.59972,-3.77472 -0.635,0 -0.70556,0.28222 -0.81139,2.71639 l -0.10583,2.71639 -1.41111,-2.64583 c -1.02306,-1.90501 -1.62278,-2.64584 -2.2225,-2.71639 -0.77612,-0.10584 -0.77612,-0.0706 -0.77612,3.77472 z"
         inkscape:connector-curvature="0" />
      <path
         style="fill:#000000;stroke:none;stroke-width:0.03527778"
         id="path4147"
         d="m 108.6555,184.8167 v 3.88055 h 2.32833 c 1.69333,0 2.29306,-0.10583 2.18722,-0.45861 -0.10583,-0.21167 -0.88194,-0.45861 -1.79916,-0.52917 -1.62278,-0.10583 -1.65806,-0.14111 -1.65806,-1.34055 0,-1.16417 0.0353,-1.19945 1.41111,-1.19945 1.02306,0 1.41111,-0.14111 1.41111,-0.52916 0,-0.38806 -0.38805,-0.52917 -1.41111,-0.52917 -1.34055,0 -1.41111,-0.0705 -1.41111,-1.02306 0,-0.98777 0.0706,-1.05833 1.69333,-1.16416 2.39889,-0.14111 2.04611,-0.77611 -0.52916,-0.91722 l -2.2225,-0.10584 z"
         inkscape:connector-curvature="0" />
      <path
         style="fill:#000000;stroke:none;stroke-width:0.03527778"
         id="path4149"
         d="m -0.59972213,187.49781 c -0.1058333,0.28222 -0.070556,0.67028 0.1058332,0.84666 0.91722169,0.84667 8.60777313,4.97417 8.92527283,4.7625 1.0583334,-0.635 0.176389,-1.51694 -3.8452756,-3.81 C 2.2577765,187.9917 0.17638876,186.93336 -2.3333333e-7,186.93336 -0.21166691,186.93336 -0.45861091,187.18031 -0.59972213,187.49781 Z"
         inkscape:connector-curvature="0" />
      <path
         style="fill:#000000;stroke:none;stroke-width:0.03527778"
         id="path4151"
         d="m 126.54133,189.33225 c -3.28083,1.905 -4.1275,2.50472 -4.05694,3.06917 0.14111,1.09361 0.9525,0.81139 5.3975,-1.76389 2.89277,-1.69333 4.05694,-2.54 3.98639,-2.92806 -0.21167,-1.05833 -1.09362,-0.77611 -5.32695,1.62278 z"
         inkscape:connector-curvature="0" />
      <path
         style="fill:#000000;stroke:none;stroke-width:0.03527778"
         id="path4153"
         d="m -7.9375004,205.20725 c -0.1058332,0.10584 -0.1763888,0.45861 -0.1763888,0.81139 0,0.70556 0.5997223,0.91722 6.6322226,2.46945 2.8574987,0.74083 3.3161104,0.77611 3.5983321,0.3175 0.5644437,-0.84667 0.423333,-1.02306 -1.12888807,-1.44639 -6.91444423,-1.86972 -8.74888883,-2.32834 -8.92527783,-2.15195 z"
         inkscape:connector-curvature="0" />
      <path
         style="fill:#000000;stroke:none;stroke-width:0.03527778"
         id="path4155"
         d="m 133.94966,206.37142 c -2.68111,0.70556 -4.97416,1.37583 -5.04472,1.48167 -0.3175,0.3175 0.3175,1.30527 0.81139,1.30527 0.52917,0 6.13833,-1.44638 8.50195,-2.15194 1.05833,-0.35278 1.5875,-1.44639 0.88194,-1.83444 -0.17639,-0.0706 -2.46944,0.45861 -5.15056,1.19944 z"
         inkscape:connector-curvature="0" />
      <path
         style="fill:#000000;stroke:none;stroke-width:0.03527778"
         id="path4157"
         d="m 3.1749979,218.22475 c 0,0.35278 0.8819447,3.56306 1.9049991,7.16139 l 1.8697218,6.52639 h 1.3405544 1.3758331 l 0.9172217,-3.70416 c 0.529167,-2.04612 1.164167,-4.40973 1.411111,-5.29167 l 0.423334,-1.5875 1.481666,5.29167 1.446389,5.29166 1.305278,0.10584 1.305278,0.10583 0.705556,-2.39889 c 1.905,-6.56167 3.210278,-11.25361 3.210278,-11.67695 0,-0.3175 -0.3175,-0.42333 -0.9525,-0.35277 -0.917223,0.10583 -0.987778,0.3175 -2.469445,5.89139 -0.846667,3.21027 -1.5875,5.85611 -1.622778,5.89139 -0.03528,0.0705 -0.811389,-2.54 -1.693333,-5.78556 l -1.5875,-5.89139 h -1.058334 -1.023055 l -1.270001,4.93889 c -0.7055547,2.71639 -1.3758321,5.3975 -1.5169431,5.99722 -0.246945,0.91722 -0.5291667,0.21167 -1.9402768,-4.93889 -1.5874991,-5.82083 -1.6580551,-5.99722 -2.5752765,-6.10305 -0.7761107,-0.10584 -0.9877777,0.0353 -0.9877777,0.52916 z"
         inkscape:connector-curvature="0" />
      <path
         style="fill:#000000;stroke:none;stroke-width:0.03527778"
         id="path4159"
         d="m 122.09633,219.14198 c -0.28222,0.35277 -0.38805,2.46944 -0.3175,7.16139 l 0.10583,6.6675 3.98639,0.10583 c 3.98639,0.10583 3.98639,0.10583 3.88056,-0.70556 -0.10583,-0.77611 -0.28222,-0.81139 -2.99861,-0.91722 l -2.92806,-0.10583 v -2.43417 -2.43417 l 2.57528,-0.10583 c 1.97556,-0.0705 2.54,-0.21167 2.54,-0.635 0,-0.42333 -0.56444,-0.56444 -2.54,-0.635 l -2.57528,-0.10583 v -2.25778 -2.29306 h 3.03389 c 2.92806,0 2.99861,-0.0353 2.89278,-0.81138 -0.10583,-0.74084 -0.28222,-0.77612 -3.66889,-0.88195 -2.71639,-0.0706 -3.66889,0.0353 -3.98639,0.38806 z"
         inkscape:connector-curvature="0" />
      <path
         style="fill:#000000;stroke:none;stroke-width:0.03527778"
         id="path4161"
         d="m -10.583334,225.56253 v 0.88195 H -5.2916669 -2.3333333e-7 v -0.88195 -0.88194 H -5.2916669 -10.583334 Z"
         inkscape:connector-curvature="0" />
      <path
         style="fill:#000000;stroke:none;stroke-width:0.03527778"
         id="path4163"
         d="m 131.58605,225.56253 v 0.88195 h 5.29167 5.29167 v -0.88195 -0.88194 h -5.29167 -5.29167 z"
         inkscape:connector-curvature="0" />
      <path
         style="fill:#000000;stroke:none;stroke-width:0.03527778"
         id="path4165"
         d="m -3.5277778,243.16614 c -5.7502781,1.5875 -5.6444448,1.55223 -4.9741671,2.61056 0.2116668,0.38806 1.305278,0.21167 5.291667,-0.84667 4.515555,-1.19944 5.0094437,-1.41111 4.9036097,-2.04611 -0.07056,-0.42333 -0.3527767,-0.77611 -0.6349997,-0.81139 -0.28222167,-0.0353 -2.3636098,0.45861 -4.5861099,1.09361 z"
         inkscape:connector-curvature="0" />
      <path
         style="fill:#000000;stroke:none;stroke-width:0.03527778"
         id="path4167"
         d="m 129.22244,242.53114 c -0.10583,0.28223 -0.0705,0.67028 0.10584,0.84667 0.17638,0.14111 2.46944,0.84667 5.08,1.55222 3.56305,0.91723 4.79777,1.12889 5.00944,0.81139 0.3175,-0.45861 0.38806,-1.30528 0.10583,-1.30528 -0.0706,0 -2.2225,-0.56444 -4.72722,-1.23472 -5.22111,-1.41111 -5.29167,-1.41111 -5.57389,-0.67028 z"
         inkscape:connector-curvature="0" />
      <path
         style="fill:#000000;stroke:none;stroke-width:0.03527778"
         id="path4169"
         d="m 122.59022,258.58253 c -0.14111,0.38806 -0.17639,0.77612 -0.10583,0.84667 0.70555,0.635 8.96055,5.04472 9.17222,4.90361 0.14111,-0.10583 0.28222,-0.45861 0.28222,-0.81139 0,-0.45861 -1.30528,-1.41111 -4.37444,-3.175 -2.39889,-1.37583 -4.445,-2.50472 -4.55084,-2.50472 -0.10583,0 -0.3175,0.3175 -0.42333,0.74083 z"
         inkscape:connector-curvature="0" />
      <path
         style="fill:#000000;stroke:none;stroke-width:0.03527778"
         id="path4171"
         d="m 3.1749979,260.59337 c -3.80999773,2.25778 -4.9036089,3.35139 -3.80999773,3.77472 0.81138859,0.3175 8.92527303,-4.58611 8.92527303,-5.32694 0,-1.16417 -0.9877774,-0.88195 -5.1152753,1.55222 z"
         inkscape:connector-curvature="0" />
      <path
         style="fill:#000000;stroke:none;stroke-width:0.03527778"
         id="path4173"
         d="m 18.556106,263.59198 c -0.423333,0.3175 -0.599722,0.81139 -0.493889,1.65805 0.07056,1.02306 0.352778,1.37584 1.622778,2.04612 1.093611,0.635 1.481667,1.05833 1.481667,1.69333 0,0.77611 -0.282222,0.9525 -1.5875,0.9525 -0.176389,0 -0.705556,-0.10583 -1.128889,-0.24695 -1.305278,-0.42333 -0.987778,0.70556 0.282222,1.16417 2.081389,0.74083 4.268612,-0.91722 3.668889,-2.75167 -0.105833,-0.38805 -0.917222,-1.12888 -1.799166,-1.62277 -2.08139,-1.19945 -2.010834,-2.11667 0.141111,-2.08139 0.9525,0 1.481666,-0.14111 1.481666,-0.42334 0,-0.88194 -2.575278,-1.16416 -3.668889,-0.38805 z"
         inkscape:connector-curvature="0" />
      <path
         style="fill:#000000;stroke:none;stroke-width:0.03527778"
         id="path4175"
         d="m 23.283329,263.52142 c 0,0.24695 0.423333,1.97556 0.9525,3.88056 0.846667,3.06917 1.058333,3.4925 1.763889,3.4925 0.635,0 0.846667,-0.35278 1.375833,-2.64583 0.352778,-1.44639 0.740834,-2.54 0.846667,-2.46945 0.141111,0.10583 0.564444,1.27 0.917222,2.64583 0.529167,2.08139 0.740834,2.46945 1.375834,2.46945 0.635,0 0.881944,-0.49389 1.728611,-3.45722 0.564444,-1.86973 1.093611,-3.63361 1.164167,-3.88056 0.105833,-0.24694 -0.105834,-0.42333 -0.493889,-0.42333 -0.529167,0 -0.776111,0.52916 -1.305278,2.54 -0.352778,1.41111 -0.776111,2.78694 -0.917222,3.03389 -0.141112,0.28222 -0.564445,-0.77611 -1.023056,-2.54 -0.635,-2.36361 -0.9525,-3.03389 -1.446389,-3.03389 -0.458611,0 -0.740833,0.45861 -1.023056,1.65805 -0.246944,0.9525 -0.599722,2.32834 -0.811389,3.10445 l -0.388055,1.41111 -0.458611,-1.5875 c -0.246945,-0.88195 -0.635,-2.25778 -0.846667,-3.10445 -0.211667,-0.88194 -0.599722,-1.48166 -0.881944,-1.48166 -0.282223,0 -0.529167,0.17639 -0.529167,0.38805 z"
         inkscape:connector-curvature="0" />
      <path
         style="fill:#000000;stroke:none;stroke-width:0.03527778"
         id="path4177"
         d="m 101.81161,263.94476 c -0.42334,0.3175 -0.59973,0.81139 -0.49389,1.65805 0.0705,1.02306 0.35278,1.37584 1.62278,2.04611 1.09361,0.635 1.48166,1.05834 1.48166,1.69334 0,0.77611 -0.28222,0.9525 -1.5875,0.9525 -0.17639,0 -0.70555,-0.10584 -1.12889,-0.24695 -1.30527,-0.42333 -0.98777,0.70556 0.28223,1.16417 2.08139,0.74083 4.26861,-0.91722 3.66889,-2.75167 -0.10584,-0.38805 -0.91723,-1.12889 -1.79917,-1.62278 -2.08139,-1.19944 -2.01084,-2.11666 0.14111,-2.08138 0.9525,0 1.48167,-0.14112 1.48167,-0.42334 0,-0.88194 -2.57528,-1.16416 -3.66889,-0.38805 z"
         inkscape:connector-curvature="0" />
      <path
         style="fill:#000000;stroke:none;stroke-width:0.03527778"
         id="path4179"
         d="m 107.24439,267.3667 v 3.88056 h 2.11666 c 1.65806,0 2.11667,-0.10584 2.11667,-0.52917 0,-0.38806 -0.42333,-0.52917 -1.5875,-0.52917 -1.5875,0 -1.5875,0 -1.5875,-1.23472 0,-1.19944 0.0353,-1.23472 1.41111,-1.23472 1.02306,0 1.41111,-0.14111 1.41111,-0.52917 0,-0.38805 -0.38805,-0.52916 -1.41111,-0.52916 -1.34056,0 -1.41111,-0.0706 -1.41111,-1.05834 0,-1.02305 0.0705,-1.05833 1.5875,-1.05833 1.16417,0 1.5875,-0.14111 1.5875,-0.52917 0,-0.42333 -0.45861,-0.52916 -2.11667,-0.52916 h -2.11666 z"
         inkscape:connector-curvature="0" />
      <path
         style="fill:#000000;stroke:none;stroke-width:0.03527778"
         id="path4181"
         d="m 112.07744,272.23504 c -0.56444,0.59972 -0.38805,0.81138 3.06917,4.26861 2.57528,2.57527 3.84528,3.59833 4.23333,3.45722 0.3175,-0.14111 0.56445,-0.42333 0.56445,-0.67028 0,-0.28222 -1.62278,-2.11667 -3.63362,-4.09222 -3.4925,-3.45722 -3.66888,-3.59834 -4.23333,-2.96333 z"
         inkscape:connector-curvature="0" />
      <path
         style="fill:#000000;stroke:none;stroke-width:0.03527778"
         id="path4183"
         d="m 14.463884,275.65698 c -3.4925,3.52778 -3.668889,3.73944 -3.069167,4.30389 0.564444,0.59972 0.811389,0.42333 4.374445,-3.13972 3.245555,-3.24556 3.704167,-3.84528 3.316111,-4.30389 -0.282222,-0.3175 -0.564445,-0.56445 -0.705556,-0.56445 -0.105833,0 -1.869722,1.65806 -3.915833,3.70417 z"
         inkscape:connector-curvature="0" />
      <path
         style="fill:#000000;stroke:none;stroke-width:0.03527778"
         id="path4185"
         d="m 63.253054,274.77504 c -3.245556,1.97555 -2.328334,5.11527 2.187222,7.51416 1.199444,0.635 2.151944,1.41111 2.2225,1.76389 0.458611,2.29306 -1.552222,3.4925 -4.198056,2.54 -2.2225,-0.77611 -2.2225,-0.77611 -2.363611,0.0706 -0.141111,0.9525 0.987778,1.76389 2.963333,2.08139 3.139723,0.49388 5.785556,-1.44639 5.785556,-4.23334 0,-1.79916 -0.705555,-2.68111 -3.210278,-3.91583 -3.033889,-1.55222 -3.845278,-2.92806 -2.54,-4.23333 0.599723,-0.59973 2.2225,-0.59973 4.268612,0.0353 0.740833,0.21167 0.811389,0.14111 0.705555,-0.59972 -0.211666,-1.69333 -3.704167,-2.32833 -5.820833,-1.02305 z"
         inkscape:connector-curvature="0" />
      <path
         style="fill:#000000;stroke:none;stroke-width:0.03527778"
         id="path4187"
         d="m 98.319122,282.6067 c -0.529167,0.42334 -0.35278,0.88195 1.975538,4.93889 1.37584,2.46945 2.71639,4.51556 2.92806,4.51556 0.21166,0 0.56444,-0.21167 0.77611,-0.45861 0.28222,-0.3175 -0.3175,-1.62278 -2.15195,-4.90362 -1.41111,-2.46944 -2.645824,-4.51555 -2.751654,-4.51555 -0.10584,0 -0.458607,0.21167 -0.776104,0.42333 z"
         inkscape:connector-curvature="0" />
      <path
         style="fill:#000000;stroke:none;stroke-width:0.03527778"
         id="path4189"
         d="m 29.315829,286.91059 c -1.375833,2.39889 -2.504722,4.51556 -2.504722,4.72722 0,0.28223 0.776111,0.77612 1.234722,0.77612 0.176389,0 5.115278,-8.71362 5.115278,-9.06639 0,-0.3175 -0.776111,-0.81139 -1.234722,-0.81139 -0.07056,0 -1.234722,1.97555 -2.610556,4.37444 z"
         inkscape:connector-curvature="0" />
      <path
         style="fill:#000000;stroke:none;stroke-width:0.03527778"
         id="path4191"
         d="m 82.232499,289.20365 c -0.493889,0.3175 -0.211666,1.65805 2.010834,9.63083 0.141111,0.635 1.305278,0.88195 1.622778,0.35278 0.246944,-0.42333 -2.39889,-10.05417 -2.786945,-10.19528 -0.211667,-0.0353 -0.564445,0.0353 -0.846667,0.21167 z"
         inkscape:connector-curvature="0" />
      <path
         style="fill:#000000;stroke:none;stroke-width:0.03527778"
         id="path4193"
         d="m 46.46083,294.21309 c -0.740833,2.71639 -1.234722,5.08 -1.128889,5.29167 0.141111,0.17639 0.493889,0.3175 0.811389,0.3175 0.493889,0 0.881945,-1.02306 1.940278,-5.00945 1.340556,-5.00944 1.340556,-5.53861 0.07056,-5.57389 -0.211667,0 -0.9525,2.22251 -1.693334,4.97417 z"
         inkscape:connector-curvature="0" />
      <path
         style="fill:#000000;stroke:none;stroke-width:0.03527778"
         id="path4195"
         d="m 64.911109,297.00004 v 5.29166 h 0.881945 0.881944 v -5.29166 -5.29167 h -0.881944 -0.881945 z"
         inkscape:connector-curvature="0" />
    </g>
  </g>
</svg>
